<mxfile host="app.diagrams.net" modified="2024-04-07T08:14:49.406Z" agent="Mozilla/5.0 (Windows NT 10.0; Win64; x64) AppleWebKit/537.36 (KHTML, like Gecko) Chrome/123.0.0.0 Safari/537.36" etag="1-WB3V9MVCtkV6OkkJ9z" version="24.2.2" type="device">
  <diagram name="Sida-1" id="xzicAF45DtnHpeuYlPcJ">
    <mxGraphModel dx="1241" dy="566" grid="1" gridSize="10" guides="1" tooltips="1" connect="1" arrows="1" fold="1" page="1" pageScale="1" pageWidth="827" pageHeight="1169" background="#FFFFFF" math="0" shadow="0">
      <root>
        <mxCell id="0" />
        <mxCell id="1" parent="0" />
        <mxCell id="bCUlPIcnCdEgCG_oMiQY-6" value="Card" style="swimlane;fontStyle=0;align=center;verticalAlign=top;childLayout=stackLayout;horizontal=1;startSize=55;horizontalStack=0;resizeParent=1;resizeParentMax=0;resizeLast=0;collapsible=0;marginBottom=0;html=1;whiteSpace=wrap;fillOpacity=100;" vertex="1" parent="1">
          <mxGeometry x="200" y="40" width="240" height="243" as="geometry" />
        </mxCell>
        <mxCell id="bCUlPIcnCdEgCG_oMiQY-8" value="#values: int" style="text;html=1;align=left;verticalAlign=middle;spacingLeft=4;spacingRight=4;overflow=hidden;rotatable=0;points=[[0,0.5],[1,0.5]];portConstraint=eastwest;whiteSpace=wrap;fillOpacity=100;fillColor=default;" vertex="1" parent="bCUlPIcnCdEgCG_oMiQY-6">
          <mxGeometry y="55" width="240" height="20" as="geometry" />
        </mxCell>
        <mxCell id="bCUlPIcnCdEgCG_oMiQY-9" value="&lt;u&gt;#COLORS: Array&amp;lt;string&amp;gt;&lt;/u&gt;" style="text;html=1;align=left;verticalAlign=middle;spacingLeft=4;spacingRight=4;overflow=hidden;rotatable=0;points=[[0,0.5],[1,0.5]];portConstraint=eastwest;whiteSpace=wrap;fontStyle=0;fillOpacity=100;fillColor=default;" vertex="1" parent="bCUlPIcnCdEgCG_oMiQY-6">
          <mxGeometry y="75" width="240" height="20" as="geometry" />
        </mxCell>
        <mxCell id="bCUlPIcnCdEgCG_oMiQY-10" value="&lt;u&gt;#CARDS:&amp;nbsp;&lt;/u&gt;&lt;u&gt;Array&amp;lt;string&amp;gt;&lt;/u&gt;" style="text;html=1;align=left;verticalAlign=middle;spacingLeft=4;spacingRight=4;overflow=hidden;rotatable=0;points=[[0,0.5],[1,0.5]];portConstraint=eastwest;whiteSpace=wrap;fillOpacity=100;fillColor=default;" vertex="1" parent="bCUlPIcnCdEgCG_oMiQY-6">
          <mxGeometry y="95" width="240" height="20" as="geometry" />
        </mxCell>
        <mxCell id="bCUlPIcnCdEgCG_oMiQY-11" value="" style="line;strokeWidth=1;align=left;verticalAlign=middle;spacingTop=-1;spacingLeft=3;spacingRight=3;rotatable=0;labelPosition=right;points=[];portConstraint=eastwest;fillOpacity=100;" vertex="1" parent="bCUlPIcnCdEgCG_oMiQY-6">
          <mxGeometry y="115" width="240" height="8" as="geometry" />
        </mxCell>
        <mxCell id="bCUlPIcnCdEgCG_oMiQY-13" value="+ __construct():" style="text;html=1;align=left;verticalAlign=middle;spacingLeft=4;spacingRight=4;overflow=hidden;rotatable=0;points=[[0,0.5],[1,0.5]];portConstraint=eastwest;whiteSpace=wrap;fillOpacity=100;fillColor=default;" vertex="1" parent="bCUlPIcnCdEgCG_oMiQY-6">
          <mxGeometry y="123" width="240" height="20" as="geometry" />
        </mxCell>
        <mxCell id="bCUlPIcnCdEgCG_oMiQY-15" value="+ roll(): int" style="text;html=1;align=left;verticalAlign=middle;spacingLeft=4;spacingRight=4;overflow=hidden;rotatable=0;points=[[0,0.5],[1,0.5]];portConstraint=eastwest;whiteSpace=wrap;fillOpacity=100;fillColor=default;" vertex="1" parent="bCUlPIcnCdEgCG_oMiQY-6">
          <mxGeometry y="143" width="240" height="20" as="geometry" />
        </mxCell>
        <mxCell id="bCUlPIcnCdEgCG_oMiQY-16" value="+ setValue(int):&amp;nbsp;" style="text;html=1;align=left;verticalAlign=middle;spacingLeft=4;spacingRight=4;overflow=hidden;rotatable=0;points=[[0,0.5],[1,0.5]];portConstraint=eastwest;whiteSpace=wrap;fillOpacity=100;fillColor=default;" vertex="1" parent="bCUlPIcnCdEgCG_oMiQY-6">
          <mxGeometry y="163" width="240" height="20" as="geometry" />
        </mxCell>
        <mxCell id="bCUlPIcnCdEgCG_oMiQY-17" value="+ getValue(): int" style="text;html=1;align=left;verticalAlign=middle;spacingLeft=4;spacingRight=4;overflow=hidden;rotatable=0;points=[[0,0.5],[1,0.5]];portConstraint=eastwest;whiteSpace=wrap;fillOpacity=100;fillColor=default;" vertex="1" parent="bCUlPIcnCdEgCG_oMiQY-6">
          <mxGeometry y="183" width="240" height="20" as="geometry" />
        </mxCell>
        <mxCell id="bCUlPIcnCdEgCG_oMiQY-27" value="+ getAsString(): string" style="text;html=1;align=left;verticalAlign=middle;spacingLeft=4;spacingRight=4;overflow=hidden;rotatable=0;points=[[0,0.5],[1,0.5]];portConstraint=eastwest;whiteSpace=wrap;fillOpacity=100;fillColor=default;" vertex="1" parent="bCUlPIcnCdEgCG_oMiQY-6">
          <mxGeometry y="203" width="240" height="20" as="geometry" />
        </mxCell>
        <mxCell id="bCUlPIcnCdEgCG_oMiQY-28" value="+ getAsColor(): string" style="text;html=1;align=left;verticalAlign=middle;spacingLeft=4;spacingRight=4;overflow=hidden;rotatable=0;points=[[0,0.5],[1,0.5]];portConstraint=eastwest;whiteSpace=wrap;fillOpacity=100;fillColor=default;" vertex="1" parent="bCUlPIcnCdEgCG_oMiQY-6">
          <mxGeometry y="223" width="240" height="20" as="geometry" />
        </mxCell>
        <mxCell id="bCUlPIcnCdEgCG_oMiQY-29" value="CardGraphic" style="swimlane;fontStyle=0;align=center;verticalAlign=top;childLayout=stackLayout;horizontal=1;startSize=55;horizontalStack=0;resizeParent=1;resizeParentMax=0;resizeLast=0;collapsible=0;marginBottom=0;html=1;whiteSpace=wrap;fillOpacity=100;" vertex="1" parent="1">
          <mxGeometry x="520" y="53" width="240" height="123" as="geometry" />
        </mxCell>
        <mxCell id="bCUlPIcnCdEgCG_oMiQY-30" value="- representation: Array&amp;lt;string&amp;gt;" style="text;html=1;align=left;verticalAlign=middle;spacingLeft=4;spacingRight=4;overflow=hidden;rotatable=0;points=[[0,0.5],[1,0.5]];portConstraint=eastwest;whiteSpace=wrap;fillColor=#FFFFFF;fillOpacity=100;" vertex="1" parent="bCUlPIcnCdEgCG_oMiQY-29">
          <mxGeometry y="55" width="240" height="20" as="geometry" />
        </mxCell>
        <mxCell id="bCUlPIcnCdEgCG_oMiQY-33" value="" style="line;strokeWidth=1;align=left;verticalAlign=middle;spacingTop=-1;spacingLeft=3;spacingRight=3;rotatable=0;labelPosition=right;points=[];portConstraint=eastwest;fillOpacity=100;" vertex="1" parent="bCUlPIcnCdEgCG_oMiQY-29">
          <mxGeometry y="75" width="240" height="8" as="geometry" />
        </mxCell>
        <mxCell id="bCUlPIcnCdEgCG_oMiQY-34" value="+ __construct():" style="text;html=1;align=left;verticalAlign=middle;spacingLeft=4;spacingRight=4;overflow=hidden;rotatable=0;points=[[0,0.5],[1,0.5]];portConstraint=eastwest;whiteSpace=wrap;fillOpacity=100;fillColor=default;" vertex="1" parent="bCUlPIcnCdEgCG_oMiQY-29">
          <mxGeometry y="83" width="240" height="20" as="geometry" />
        </mxCell>
        <mxCell id="bCUlPIcnCdEgCG_oMiQY-38" value="+ getAsString(): string" style="text;html=1;align=left;verticalAlign=middle;spacingLeft=4;spacingRight=4;overflow=hidden;rotatable=0;points=[[0,0.5],[1,0.5]];portConstraint=eastwest;whiteSpace=wrap;fillOpacity=100;fillColor=default;" vertex="1" parent="bCUlPIcnCdEgCG_oMiQY-29">
          <mxGeometry y="103" width="240" height="20" as="geometry" />
        </mxCell>
        <mxCell id="bCUlPIcnCdEgCG_oMiQY-40" value="" style="endArrow=block;html=1;rounded=0;exitX=0;exitY=0.123;exitDx=0;exitDy=0;exitPerimeter=0;endFill=0;fillOpacity=100;" edge="1" parent="1" source="bCUlPIcnCdEgCG_oMiQY-29">
          <mxGeometry width="50" height="50" relative="1" as="geometry">
            <mxPoint x="455.91999999999996" y="70.32" as="sourcePoint" />
            <mxPoint x="440" y="68" as="targetPoint" />
          </mxGeometry>
        </mxCell>
        <mxCell id="bCUlPIcnCdEgCG_oMiQY-41" value="CardHand" style="swimlane;fontStyle=0;align=center;verticalAlign=top;childLayout=stackLayout;horizontal=1;startSize=55;horizontalStack=0;resizeParent=1;resizeParentMax=0;resizeLast=0;collapsible=0;marginBottom=0;html=1;whiteSpace=wrap;fillOpacity=100;" vertex="1" parent="1">
          <mxGeometry x="200" y="360" width="240" height="203" as="geometry" />
        </mxCell>
        <mxCell id="bCUlPIcnCdEgCG_oMiQY-42" value="- hand: Array&amp;lt;Card&amp;gt;" style="text;html=1;align=left;verticalAlign=middle;spacingLeft=4;spacingRight=4;overflow=hidden;rotatable=0;points=[[0,0.5],[1,0.5]];portConstraint=eastwest;whiteSpace=wrap;fillOpacity=100;fillColor=default;" vertex="1" parent="bCUlPIcnCdEgCG_oMiQY-41">
          <mxGeometry y="55" width="240" height="20" as="geometry" />
        </mxCell>
        <mxCell id="bCUlPIcnCdEgCG_oMiQY-45" value="" style="line;strokeWidth=1;align=left;verticalAlign=middle;spacingTop=-1;spacingLeft=3;spacingRight=3;rotatable=0;labelPosition=right;points=[];portConstraint=eastwest;fillOpacity=100;" vertex="1" parent="bCUlPIcnCdEgCG_oMiQY-41">
          <mxGeometry y="75" width="240" height="8" as="geometry" />
        </mxCell>
        <mxCell id="bCUlPIcnCdEgCG_oMiQY-47" value="+ add(Card):" style="text;html=1;align=left;verticalAlign=middle;spacingLeft=4;spacingRight=4;overflow=hidden;rotatable=0;points=[[0,0.5],[1,0.5]];portConstraint=eastwest;whiteSpace=wrap;fillOpacity=100;fillColor=default;" vertex="1" parent="bCUlPIcnCdEgCG_oMiQY-41">
          <mxGeometry y="83" width="240" height="20" as="geometry" />
        </mxCell>
        <mxCell id="bCUlPIcnCdEgCG_oMiQY-63" value="+ roll():" style="text;html=1;align=left;verticalAlign=middle;spacingLeft=4;spacingRight=4;overflow=hidden;rotatable=0;points=[[0,0.5],[1,0.5]];portConstraint=eastwest;whiteSpace=wrap;fillOpacity=100;fillColor=default;" vertex="1" parent="bCUlPIcnCdEgCG_oMiQY-41">
          <mxGeometry y="103" width="240" height="20" as="geometry" />
        </mxCell>
        <mxCell id="bCUlPIcnCdEgCG_oMiQY-48" value="+ getNumberCards(): int" style="text;html=1;align=left;verticalAlign=middle;spacingLeft=4;spacingRight=4;overflow=hidden;rotatable=0;points=[[0,0.5],[1,0.5]];portConstraint=eastwest;whiteSpace=wrap;fillOpacity=100;fillColor=default;" vertex="1" parent="bCUlPIcnCdEgCG_oMiQY-41">
          <mxGeometry y="123" width="240" height="20" as="geometry" />
        </mxCell>
        <mxCell id="bCUlPIcnCdEgCG_oMiQY-49" value="+ getValues(): Array&amp;lt;int&amp;gt;" style="text;html=1;align=left;verticalAlign=middle;spacingLeft=4;spacingRight=4;overflow=hidden;rotatable=0;points=[[0,0.5],[1,0.5]];portConstraint=eastwest;whiteSpace=wrap;fillOpacity=100;fillColor=default;" vertex="1" parent="bCUlPIcnCdEgCG_oMiQY-41">
          <mxGeometry y="143" width="240" height="20" as="geometry" />
        </mxCell>
        <mxCell id="bCUlPIcnCdEgCG_oMiQY-50" value="+ getString(): Array&amp;lt;string&amp;gt;" style="text;html=1;align=left;verticalAlign=middle;spacingLeft=4;spacingRight=4;overflow=hidden;rotatable=0;points=[[0,0.5],[1,0.5]];portConstraint=eastwest;whiteSpace=wrap;fillOpacity=100;fillColor=default;" vertex="1" parent="bCUlPIcnCdEgCG_oMiQY-41">
          <mxGeometry y="163" width="240" height="20" as="geometry" />
        </mxCell>
        <mxCell id="bCUlPIcnCdEgCG_oMiQY-51" value="+ getAsColor(): Array&amp;lt;string&amp;gt;" style="text;html=1;strokeColor=none;fillColor=default;align=left;verticalAlign=middle;spacingLeft=4;spacingRight=4;overflow=hidden;rotatable=0;points=[[0,0.5],[1,0.5]];portConstraint=eastwest;whiteSpace=wrap;fillOpacity=100;" vertex="1" parent="bCUlPIcnCdEgCG_oMiQY-41">
          <mxGeometry y="183" width="240" height="20" as="geometry" />
        </mxCell>
        <mxCell id="bCUlPIcnCdEgCG_oMiQY-52" value="DeckOfCards" style="swimlane;fontStyle=0;align=center;verticalAlign=top;childLayout=stackLayout;horizontal=1;startSize=55;horizontalStack=0;resizeParent=1;resizeParentMax=0;resizeLast=0;collapsible=0;marginBottom=0;html=1;whiteSpace=wrap;fillOpacity=100;" vertex="1" parent="1">
          <mxGeometry x="520" y="300" width="240" height="243" as="geometry" />
        </mxCell>
        <mxCell id="bCUlPIcnCdEgCG_oMiQY-53" value="- deck: Array&amp;lt;Card&amp;gt;" style="text;html=1;align=left;verticalAlign=middle;spacingLeft=4;spacingRight=4;overflow=hidden;rotatable=0;points=[[0,0.5],[1,0.5]];portConstraint=eastwest;whiteSpace=wrap;fillOpacity=100;fillColor=default;" vertex="1" parent="bCUlPIcnCdEgCG_oMiQY-52">
          <mxGeometry y="55" width="240" height="20" as="geometry" />
        </mxCell>
        <mxCell id="bCUlPIcnCdEgCG_oMiQY-54" value="- values: Array&amp;lt;string&amp;gt;" style="text;html=1;align=left;verticalAlign=middle;spacingLeft=4;spacingRight=4;overflow=hidden;rotatable=0;points=[[0,0.5],[1,0.5]];portConstraint=eastwest;whiteSpace=wrap;fontStyle=0;fillOpacity=100;fillColor=default;" vertex="1" parent="bCUlPIcnCdEgCG_oMiQY-52">
          <mxGeometry y="75" width="240" height="20" as="geometry" />
        </mxCell>
        <mxCell id="bCUlPIcnCdEgCG_oMiQY-56" value="" style="line;strokeWidth=1;align=left;verticalAlign=middle;spacingTop=-1;spacingLeft=3;spacingRight=3;rotatable=0;labelPosition=right;points=[];portConstraint=eastwest;fillOpacity=100;" vertex="1" parent="bCUlPIcnCdEgCG_oMiQY-52">
          <mxGeometry y="95" width="240" height="8" as="geometry" />
        </mxCell>
        <mxCell id="bCUlPIcnCdEgCG_oMiQY-57" value="+ __construct():" style="text;html=1;align=left;verticalAlign=middle;spacingLeft=4;spacingRight=4;overflow=hidden;rotatable=0;points=[[0,0.5],[1,0.5]];portConstraint=eastwest;whiteSpace=wrap;fillOpacity=100;fillColor=default;" vertex="1" parent="bCUlPIcnCdEgCG_oMiQY-52">
          <mxGeometry y="103" width="240" height="20" as="geometry" />
        </mxCell>
        <mxCell id="bCUlPIcnCdEgCG_oMiQY-58" value="+ giveHand(int): Array&amp;lt;Card&amp;gt;" style="text;html=1;align=left;verticalAlign=middle;spacingLeft=4;spacingRight=4;overflow=hidden;rotatable=0;points=[[0,0.5],[1,0.5]];portConstraint=eastwest;whiteSpace=wrap;fillOpacity=100;fillColor=default;" vertex="1" parent="bCUlPIcnCdEgCG_oMiQY-52">
          <mxGeometry y="123" width="240" height="20" as="geometry" />
        </mxCell>
        <mxCell id="bCUlPIcnCdEgCG_oMiQY-59" value="+ giveHandValues(int&amp;gt;: Array&amp;lt;string&amp;gt;" style="text;html=1;align=left;verticalAlign=middle;spacingLeft=4;spacingRight=4;overflow=hidden;rotatable=0;points=[[0,0.5],[1,0.5]];portConstraint=eastwest;whiteSpace=wrap;fillOpacity=100;fillColor=default;" vertex="1" parent="bCUlPIcnCdEgCG_oMiQY-52">
          <mxGeometry y="143" width="240" height="20" as="geometry" />
        </mxCell>
        <mxCell id="bCUlPIcnCdEgCG_oMiQY-60" value="+ giveHandString(int): Array&amp;lt;string&amp;gt;" style="text;html=1;align=left;verticalAlign=middle;spacingLeft=4;spacingRight=4;overflow=hidden;rotatable=0;points=[[0,0.5],[1,0.5]];portConstraint=eastwest;whiteSpace=wrap;fillOpacity=100;fillColor=default;" vertex="1" parent="bCUlPIcnCdEgCG_oMiQY-52">
          <mxGeometry y="163" width="240" height="20" as="geometry" />
        </mxCell>
        <mxCell id="bCUlPIcnCdEgCG_oMiQY-61" value="+ getNumberCards(): int" style="text;html=1;align=left;verticalAlign=middle;spacingLeft=4;spacingRight=4;overflow=hidden;rotatable=0;points=[[0,0.5],[1,0.5]];portConstraint=eastwest;whiteSpace=wrap;fillOpacity=100;fillColor=default;" vertex="1" parent="bCUlPIcnCdEgCG_oMiQY-52">
          <mxGeometry y="183" width="240" height="20" as="geometry" />
        </mxCell>
        <mxCell id="bCUlPIcnCdEgCG_oMiQY-62" value="+ getString(): Array&amp;lt;string&amp;gt;" style="text;html=1;align=left;verticalAlign=middle;spacingLeft=4;spacingRight=4;overflow=hidden;rotatable=0;points=[[0,0.5],[1,0.5]];portConstraint=eastwest;whiteSpace=wrap;fillOpacity=100;fillColor=default;" vertex="1" parent="bCUlPIcnCdEgCG_oMiQY-52">
          <mxGeometry y="203" width="240" height="20" as="geometry" />
        </mxCell>
        <mxCell id="bCUlPIcnCdEgCG_oMiQY-64" value="+ getColor(): Array&amp;lt;string&amp;gt;" style="text;html=1;align=left;verticalAlign=middle;spacingLeft=4;spacingRight=4;overflow=hidden;rotatable=0;points=[[0,0.5],[1,0.5]];portConstraint=eastwest;whiteSpace=wrap;fillOpacity=100;fillColor=default;" vertex="1" parent="bCUlPIcnCdEgCG_oMiQY-52">
          <mxGeometry y="223" width="240" height="20" as="geometry" />
        </mxCell>
        <mxCell id="bCUlPIcnCdEgCG_oMiQY-65" value="" style="endArrow=diamondThin;html=1;rounded=0;endFill=0;endSize=21;exitX=0.515;exitY=0.95;exitDx=0;exitDy=0;exitPerimeter=0;fillOpacity=100;" edge="1" parent="1">
          <mxGeometry width="50" height="50" relative="1" as="geometry">
            <mxPoint x="639.4999999999999" y="176" as="sourcePoint" />
            <mxPoint x="639.9" y="301" as="targetPoint" />
          </mxGeometry>
        </mxCell>
        <mxCell id="bCUlPIcnCdEgCG_oMiQY-68" value="" style="endArrow=diamondThin;html=1;rounded=0;endFill=0;endSize=21;fillOpacity=100;" edge="1" parent="1">
          <mxGeometry width="50" height="50" relative="1" as="geometry">
            <mxPoint x="319.86" y="283" as="sourcePoint" />
            <mxPoint x="320" y="360" as="targetPoint" />
          </mxGeometry>
        </mxCell>
        <mxCell id="bCUlPIcnCdEgCG_oMiQY-69" value="0..52" style="text;html=1;align=center;verticalAlign=middle;resizable=0;points=[];autosize=1;fillOpacity=100;" vertex="1" parent="1">
          <mxGeometry x="640" y="176" width="50" height="30" as="geometry" />
        </mxCell>
        <mxCell id="bCUlPIcnCdEgCG_oMiQY-70" value="1..1" style="text;html=1;align=center;verticalAlign=middle;resizable=0;points=[];autosize=1;fillOpacity=100;" vertex="1" parent="1">
          <mxGeometry x="645" y="270" width="40" height="30" as="geometry" />
        </mxCell>
        <mxCell id="bCUlPIcnCdEgCG_oMiQY-71" value="0..5" style="text;html=1;align=center;verticalAlign=middle;resizable=0;points=[];autosize=1;fillOpacity=100;" vertex="1" parent="1">
          <mxGeometry x="325" y="283" width="40" height="30" as="geometry" />
        </mxCell>
        <mxCell id="bCUlPIcnCdEgCG_oMiQY-72" value="1..1" style="text;html=1;align=center;verticalAlign=middle;resizable=0;points=[];autosize=1;fillOpacity=100;" vertex="1" parent="1">
          <mxGeometry x="325" y="336" width="40" height="30" as="geometry" />
        </mxCell>
      </root>
    </mxGraphModel>
  </diagram>
</mxfile>
